<svg t="1612679695441" class="icon" viewBox="0 0 1024 1024" version="1.1" xmlns="http://www.w3.org/2000/svg" p-id="2058" width="200" height="200"><path d="M395.3 84c22.3 0 50.8 15.8 76.2 42.3 21.8 22.7 28.6 50 30.8 64.2 3.4 22.7-1 36.4-3.1 39.4-1.9 1.1-9.3 3.8-23.1 3.8-24.4 0-58.8-8.7-82.2-33-19-19.9-31.8-42-35.9-62.4-3.7-18.6 0-33.3 11-43.9 7.3-7 15.9-10.4 26.3-10.4m0-20c-15 0-28.8 5-40.2 16-33.5 32.1-19.2 89.1 24.3 134.6 27.5 28.7 67.1 39.2 96.6 39.2 17.2 0 31-3.6 36.9-9.2 17.5-16.8 16.6-86.6-27-132.1-28.6-30-61.7-48.5-90.6-48.5z" fill="#771725" p-id="2059"></path><path d="M642.6 84c10.4 0 19.1 3.4 26.4 10.4 11 10.6 14.7 25.3 11 43.9-4.1 20.4-16.9 42.5-35.9 62.4-23.3 24.4-57.7 33-82.2 33-13.8 0-21.2-2.6-23.1-3.8-2.2-3-6.5-16.7-3.1-39.4 2.1-14.2 9-41.5 30.8-64.2C591.8 99.8 620.3 84 642.6 84m0-20c-28.8 0-61.9 18.5-90.6 48.5-43.6 45.4-44.4 115.3-27 132.1 5.9 5.6 19.6 9.2 36.9 9.2 29.5 0 69.1-10.5 96.6-39.2C702 169.1 716.3 112.1 682.8 80c-11.4-11-25.3-16-40.2-16z" fill="#771725" p-id="2060"></path><path d="M215.3 949.8c-32.1 0-58.2-26.1-58.2-58.2V298.2c0-32.1 26.1-58.2 58.2-58.2h593.3c32.1 0 58.2 26.1 58.2 58.2v593.3c0 32.1-26.1 58.2-58.2 58.2H215.3z" fill="#ED393A" p-id="2061"></path><path d="M808.7 250c26.6 0 48.2 21.6 48.2 48.2v593.3c0 26.6-21.6 48.2-48.2 48.2H215.3c-26.6 0-48.2-21.6-48.2-48.2V298.2c0-26.6 21.6-48.2 48.2-48.2h593.4m0-20H215.3c-37.7 0-68.2 30.5-68.2 68.2v593.3c0 37.7 30.5 68.2 68.2 68.2h593.3c37.7 0 68.2-30.5 68.2-68.2V298.2c0.1-37.7-30.5-68.2-68.1-68.2z" fill="#771725" p-id="2062"></path><path d="M431.3 949.8V675.6H157.1V514.2h274.2V240h161.4v274.2h274.2v161.4H592.7v274.2z" fill="#FFD400" p-id="2063"></path><path d="M582.7 250v274.2h274.2v141.3H582.7v274.2H441.3V665.6H167.1V524.2h274.2V250h141.4m20-20H421.3v274.2H147.1v181.3h274.2v274.2h181.3V685.6h274.2V504.2H602.7V230z" fill="#771725" p-id="2064"></path></svg>